HIERARCHY
ROOT root
{
	OFFSET	0	13.1	24.9
	CHANNELS 6  Xposition Yposition Zposition Xrotation Yrotation Zrotation
	JOINT spine_1
	{
		OFFSET	0	9.99999	0
		CHANNELS 3  Xrotation Yrotation Zrotation
		JOINT spine_2
		{
			OFFSET	0	112	-10
			CHANNELS 3  Xrotation Yrotation Zrotation
			JOINT spine_3
			{
				OFFSET	0	206.5	19.3
				CHANNELS 3  Xrotation Yrotation Zrotation
				JOINT spine_4
				{
					OFFSET	0	110.4	14.6
					CHANNELS 3  Xrotation Yrotation Zrotation
					JOINT neck_1
					{
						OFFSET	0	71.8	-50.3
						CHANNELS 3  Xrotation Yrotation Zrotation
						JOINT neck_2
						{
							OFFSET	0	86.2	-25.8
							CHANNELS 3  Xrotation Yrotation Zrotation
							JOINT head_ee
							{
								OFFSET	0	179.8	-8.7
								CHANNELS 3  Xrotation Yrotation Zrotation
								End Site
								{
									OFFSET	1	0	0
								}
							}
						}
					}
					JOINT left_clavicle
					{
						OFFSET	-43.2	22.4	-70.8
						CHANNELS 3  Xrotation Yrotation Zrotation
						JOINT left_shoulder
						{
							OFFSET	-93.9	-5.79999	48.7
							CHANNELS 3  Xrotation Yrotation Zrotation
							JOINT left_elbow
							{
								OFFSET	-291.4	-30.8	15.2
								CHANNELS 3  Xrotation Yrotation Zrotation
								JOINT left_lowarm_twist
								{
									OFFSET	-110.7	-3.89999	13.6
									CHANNELS 3  Xrotation Yrotation Zrotation
									JOINT left_hand
									{
										OFFSET	-110.7	-3.89999	13.6
										CHANNELS 3  Xrotation Yrotation Zrotation
										JOINT left_ee
										{
											OFFSET	-80.8	-5.10001	12.1
											CHANNELS 3  Xrotation Yrotation Zrotation
											End Site
											{
												OFFSET	1	0	0
											}
										}
									}
								}
							}
						}
					}
					JOINT right_clavicle
					{
						OFFSET	43.2	22.4	-70.8
						CHANNELS 3  Xrotation Yrotation Zrotation
						JOINT right_shoulder
						{
							OFFSET	93.9	-5.79999	48.7
							CHANNELS 3  Xrotation Yrotation Zrotation
							JOINT right_elbow
							{
								OFFSET	291.4	-30.8	15.2
								CHANNELS 3  Xrotation Yrotation Zrotation
								JOINT right_lowarm_twist
								{
									OFFSET	110.7	-3.89999	13.6
									CHANNELS 3  Xrotation Yrotation Zrotation
									JOINT right_hand
									{
										OFFSET	110.7	-3.89999	13.6
										CHANNELS 3  Xrotation Yrotation Zrotation
										JOINT right_ee
										{
											OFFSET	80.8	-5.10001	12.1
											CHANNELS 3  Xrotation Yrotation Zrotation
											End Site
											{
												OFFSET	1	0	0
											}
										}
									}
								}
							}
						}
					}
				}
			}
		}
	}
	JOINT left_hip
	{
		OFFSET	-82.8	-127.5	0.300001
		CHANNELS 3  Xrotation Yrotation Zrotation
		JOINT left_knee
		{
			OFFSET	-28.2	-396.7	2.2
			CHANNELS 3  Xrotation Yrotation Zrotation
			JOINT left_ankle
			{
				OFFSET	-11.7	-411.3	35.4
				CHANNELS 3  Xrotation Yrotation Zrotation
				JOINT left_toes
				{
					OFFSET	0	-60	-88.6
					CHANNELS 3  Xrotation Yrotation Zrotation
					JOINT left_foot_ee
					{
						OFFSET	-22.5	-16.5	-42.2
						CHANNELS 3  Xrotation Yrotation Zrotation
						End Site
						{
							OFFSET	1	0	0
						}
					}
				}
			}
		}
	}
	JOINT right_hip
	{
		OFFSET	82.8	-127.5	0.300001
		CHANNELS 3  Xrotation Yrotation Zrotation
		JOINT right_knee
		{
			OFFSET	28.2	-396.7	2.2
			CHANNELS 3  Xrotation Yrotation Zrotation
			JOINT right_ankle
			{
				OFFSET	11.7	-411.3	35.4
				CHANNELS 3  Xrotation Yrotation Zrotation
				JOINT right_toes
				{
					OFFSET	0	-60	-88.6
					CHANNELS 3  Xrotation Yrotation Zrotation
					JOINT right_foot_ee
					{
						OFFSET	22.5	-16.5	-42.2
						CHANNELS 3  Xrotation Yrotation Zrotation
						End Site
						{
							OFFSET	1	0	0
						}
					}
				}
			}
		}
	}
}
MOTION
Frames: 7
Frame Time: 0.02
602.096775487 693.457 -1154.60031736 -163.087796411 -51.9351366547 -168.424783523 4.31874 -0.357284 0.0339217 4.31867 -0.358718 0.0111178 4.31865 -0.356899 -0.037756 4.31882 -0.358382 0.0190841 -11.7278 19.9675 1.01363 -12.5843 37.2399 6.9748 -0.0 0.0 -0.0 5.20238 11.1244 10.1937 -23.308 -34.5728 57.9778 0.715189 -19.5084 0.122948 15.2086 0.282985 -1.91647 -1.59936 9.16268 -6.50427 -0.0 0.0 -0.0 6.51879 12.6701 -12.2357 -29.3542 21.1071 -61.153 0.871537 23.3512 -0.180103 35.0383 0.11665 4.40542 1.46002 6.93294 -6.92951 0.0 0.0 0.0 4.81006 6.59522 10.6576 -6.4742 0.21191 0.970475 25.2789 21.9721 -3.48667 8.56503 -0.0 -0.0 -0.0 0.0 -0.0 35.0483 3.75446 7.93422 -35.5205 0.206649 -5.36107 0.469285 -14.5117 0.0689914 11.9824 -0.0 -0.0 0.0 0.0 0.0 
601.167476924 693.457 -1150.82687438 -163.459394924 -50.949542388 -168.899966176 4.31874 -0.357284 0.0339217 4.31867 -0.358718 0.0111178 4.31865 -0.356899 -0.037756 4.31882 -0.358382 0.0190841 -11.7278 19.9675 1.01363 -12.5843 37.2399 6.9748 -0.0 0.0 -0.0 5.20238 11.1244 10.1937 -23.308 -34.5728 57.9778 0.715189 -19.5084 0.122948 15.2086 0.282985 -1.91647 -1.59936 9.16268 -6.50427 -0.0 0.0 -0.0 6.51879 12.6701 -12.2357 -29.3542 21.1071 -61.153 0.871537 23.3512 -0.180103 35.0383 0.11665 4.40542 1.46002 6.93294 -6.92951 0.0 0.0 0.0 4.81006 6.59522 10.6576 -6.4742 0.21191 0.970475 25.2789 21.9721 -3.48667 8.56503 -0.0 -0.0 -0.0 0.0 -0.0 35.0483 3.75446 7.93422 -35.5205 0.206649 -5.36107 0.469285 -14.5117 0.0689914 11.9824 -0.0 -0.0 0.0 0.0 0.0 
621.783675033 694.613 -1143.49763925 -165.587998672 -50.1442810084 -169.99231819 3.97874 -0.0770138 -0.107859 3.97875 -0.0699943 -0.112541 3.97888 -0.053325 -0.121331 3.97887 -0.0718178 -0.111387 -11.98 19.5064 1.05227 -12.8306 36.3705 6.94303 -0.0 0.0 -0.0 5.57987 10.7063 10.8533 -21.0901 -34.3218 55.3794 0.717654 -19.5705 0.123772 15.8503 0.283663 -1.99842 -2.04275 7.80115 -10.0477 -0.0 0.0 -0.0 6.33346 11.3208 -11.9148 -29.8624 19.3499 -61.6892 0.761085 20.6574 -0.138708 34.8564 0.109102 4.38343 1.04856 6.93208 -4.13973 0.0 0.0 0.0 0.904626 7.44566 10.5461 -3.95149 0.142406 0.589593 25.1901 22.4333 -3.48366 7.43206 -0.0 -0.0 -0.0 0.0 -0.0 37.0698 4.06983 5.66243 -34.0285 0.131196 -5.14464 -1.42844 -10.5927 -0.209873 10.795 -0.0 -0.0 0.0 0.0 0.0 
632.927999768 693.593 -1141.1185932 -166.172910273 -49.2117127384 -170.536434206 4.02615 -0.0663568 -0.178546 4.02617 -0.054861 -0.182406 4.02633 -0.0285918 -0.18832 4.02629 -0.0579745 -0.181441 -12.1042 18.9573 0.919323 -12.9221 35.4235 6.66801 -0.0 0.0 -0.0 5.96213 10.3604 11.5288 -20.309 -34.0293 53.9194 0.792275 -21.4284 0.149908 16.219 0.283637 -2.04551 -2.35007 6.67404 -12.6406 -0.0 0.0 -0.0 6.06145 11.3539 -11.3375 -29.8912 18.2665 -61.9255 0.654602 17.9665 -0.103483 35.0685 0.117909 4.40907 0.806724 7.00771 -2.47269 0.0 0.0 0.0 -0.116861 7.43553 11.0538 -3.96623 0.142861 0.591808 25.5089 22.5319 -3.5241 7.37213 -0.0 -0.0 -0.0 0.0 -0.0 37.9906 5.09799 4.84052 -30.8201 -0.0117819 -4.67315 -1.96526 -9.53682 -0.288936 9.24061 -0.0 -0.0 0.0 0.0 0.0 
634.936185976 692.699 -1142.0123838 -165.197320486 -49.1065872965 -168.879560633 4.17397 0.305855 -0.215013 4.17394 0.318917 -0.195115 4.17287 0.342865 -0.149069 4.17298 0.315019 -0.201347 -12.4404 18.5712 1.56773 -13.2433 34.3246 7.25331 -0.0 0.0 -0.0 6.03626 10.0131 11.6666 -19.547 -31.7678 52.165 1.11695 -28.9551 0.288405 15.3861 0.283264 -1.93913 -2.63836 2.20714 -16.8274 -0.0 0.0 -0.0 6.52175 11.5032 -12.3045 -28.7992 17.0688 -62.7434 0.440363 12.3061 -0.0474738 36.979 0.20153 4.63856 0.253268 5.68787 0.703107 0.0 0.0 0.0 0.658137 6.05367 10.2636 -4.14201 0.148241 0.61825 25.6024 23.3475 -3.55015 6.35032 -0.0 -0.0 -0.0 0.0 -0.0 38.8608 3.99466 2.49846 -20.8215 -0.284969 -3.16496 -2.82737 -5.49359 -0.416959 7.2847 -0.0 -0.0 0.0 0.0 0.0 
635.687320007 692.699 -1145.01711405 -164.984955923 -49.7890758462 -168.600070483 4.17397 0.305855 -0.215013 4.17394 0.318917 -0.195115 4.17287 0.342865 -0.149069 4.17298 0.315019 -0.201347 -12.4404 18.5712 1.56773 -13.2433 34.3246 7.25331 -0.0 0.0 -0.0 6.03626 10.0131 11.6666 -19.547 -31.7678 52.165 1.11695 -28.9551 0.288405 15.3861 0.283264 -1.93913 -2.63836 2.20714 -16.8274 -0.0 0.0 -0.0 6.52175 11.5032 -12.3045 -28.7992 17.0688 -62.7434 0.440363 12.3061 -0.0474738 36.979 0.20153 4.63856 0.253268 5.68787 0.703107 0.0 0.0 0.0 0.658137 6.05367 10.2636 -4.14201 0.148241 0.61825 25.6024 23.3475 -3.55015 6.35032 -0.0 -0.0 -0.0 0.0 -0.0 38.8608 3.99466 2.49846 -20.8215 -0.284969 -3.16496 -2.82737 -5.49359 -0.416959 7.2847 -0.0 -0.0 0.0 0.0 0.0 
648.67148323 692.671 -1145.61415892 -164.279553318 -49.7491700824 -167.657789619 4.1931 0.320148 -0.350426 4.1931 0.341797 -0.329344 4.19113 0.384027 -0.278956 4.19118 0.335152 -0.336105 -13.6033 18.2868 2.51882 -14.5014 33.3479 8.43229 -0.0 0.0 -0.0 6.17217 11.9153 11.8562 -18.0908 -32.658 50.81 1.1858 -30.4292 0.322509 15.5469 0.283456 -1.95967 -2.96157 3.861 -18.2377 -0.0 0.0 -0.0 6.76171 11.3498 -12.8217 -29.4011 16.9694 -62.6562 0.404002 11.3173 -0.0400307 35.0789 0.118344 4.41033 0.0976759 4.62598 1.30145 0.0 0.0 0.0 -0.162382 7.87211 10.6447 -3.2053 0.118639 0.477542 24.3107 25.2775 -3.4278 6.91279 -0.0 -0.0 -0.0 0.0 -0.0 38.0795 3.54309 1.51607 -16.6303 -0.320538 -2.52301 -2.29518 -5.64435 -0.338045 6.85097 -0.0 -0.0 0.0 0.0 0.0 
